<?xml version="1.0" standalone="no"?>
<!DOCTYPE svg PUBLIC "-//W3C//DTD SVG 20010904//EN"
 "http://www.w3.org/TR/2001/REC-SVG-20010904/DTD/svg10.dtd">
<svg version="1.0" xmlns="http://www.w3.org/2000/svg"
 width="900.000000pt" height="900.000000pt" viewBox="0 0 900.000000 900.000000"
 preserveAspectRatio="xMidYMid meet">

<g transform="translate(0.000000,900.000000) scale(0.100000,-0.100000)"
fill="#000000" stroke="none">
<path d="M0 4500 l0 -4500 4500 0 4500 0 0 4500 0 4500 -4500 0 -4500 0 0
-4500z m4029 2879 c207 -64 368 -241 400 -440 6 -35 11 -128 11 -207 l0 -143
126 125 c69 69 130 126 136 126 5 0 27 13 47 30 134 105 476 237 731 282 100
17 489 17 590 0 333 -57 543 -135 755 -279 11 -7 38 -25 60 -39 92 -61 275
-253 357 -375 71 -106 169 -294 192 -371 10 -32 22 -60 27 -64 5 -3 9 -16 9
-28 0 -13 7 -37 15 -52 8 -16 15 -39 15 -52 0 -12 7 -39 15 -59 8 -19 15 -48
15 -63 0 -15 6 -45 14 -67 8 -22 14 -56 14 -75 0 -19 6 -62 13 -94 18 -80 19
-658 2 -729 -7 -27 -15 -74 -18 -103 -3 -29 -9 -62 -15 -72 -5 -10 -10 -34
-10 -52 0 -19 -4 -38 -10 -44 -5 -5 -14 -30 -19 -54 -9 -47 -24 -94 -46 -145
-20 -48 -39 -99 -41 -111 -6 -36 -161 -323 -227 -418 -191 -275 -374 -465
-721 -753 -125 -104 -426 -331 -488 -368 -9 -5 -74 -49 -145 -96 -70 -47 -161
-106 -201 -130 -40 -24 -85 -52 -100 -61 -15 -10 -34 -21 -42 -25 -8 -4 -35
-19 -61 -33 -289 -170 -756 -391 -1019 -482 -59 -20 -97 -41 -125 -67 -95 -89
-178 -135 -300 -167 -54 -14 -104 -18 -217 -17 -81 1 -162 6 -180 11 -18 6
-67 21 -108 33 -225 68 -437 239 -560 452 l-36 62 -64 7 c-169 17 -227 26
-245 35 -11 6 -35 13 -54 17 -43 8 -191 80 -256 125 -102 70 -214 191 -297
319 -42 66 -92 184 -113 272 -28 112 -32 302 -9 412 15 71 60 205 76 225 14
17 6 26 -59 69 -76 50 -216 185 -261 254 -78 116 -144 254 -158 330 -2 14 -10
39 -17 55 -17 43 -16 387 2 438 7 21 14 48 16 60 4 26 25 83 43 114 7 12 12
26 12 32 0 6 24 50 52 98 59 98 203 255 280 305 26 17 48 34 48 37 0 4 -13 38
-30 78 -64 151 -89 332 -70 501 31 286 192 557 430 729 65 46 223 128 268 138
18 3 34 11 37 16 4 5 17 9 29 9 13 0 43 7 66 15 34 12 186 25 289 25 5 0 24
24 42 53 82 127 242 280 355 337 19 10 40 23 47 28 7 5 21 12 32 15 11 3 45
15 75 27 58 22 122 36 230 50 82 11 301 4 349 -11z"/>
<path d="M3640 7110 c-212 -44 -385 -166 -487 -343 -41 -70 -26 -135 46 -210
48 -52 76 -65 171 -81 119 -21 155 -56 153 -149 -1 -46 -26 -83 -73 -109 -64
-35 -213 -8 -335 62 -97 56 -214 205 -239 304 l-7 29 -82 -7 c-216 -18 -392
-101 -538 -253 -67 -69 -115 -153 -137 -238 -6 -22 -17 -62 -24 -90 -19 -71
-15 -281 6 -379 60 -277 198 -487 381 -581 86 -44 125 -86 125 -135 0 -75 -64
-130 -152 -130 -57 0 -84 8 -187 59 -57 27 -231 190 -231 215 0 8 -8 24 -19
37 l-18 23 -87 -88 c-47 -49 -86 -92 -86 -97 0 -4 -13 -27 -28 -51 -39 -58
-75 -148 -97 -236 -23 -98 -18 -271 13 -357 69 -198 202 -383 337 -470 115
-74 288 -135 385 -135 56 0 138 23 171 48 50 38 84 46 131 28 58 -23 88 -67
88 -132 0 -45 -4 -53 -42 -91 -121 -118 -375 -156 -548 -82 -27 12 -56 19 -63
16 -7 -3 -24 -40 -37 -83 -49 -167 -35 -405 32 -536 67 -132 209 -282 313
-332 33 -16 72 -35 87 -42 14 -8 35 -14 46 -14 11 0 36 -7 55 -15 27 -11 77
-15 196 -15 l160 0 36 -35 c19 -20 38 -47 41 -61 20 -79 137 -251 211 -309
217 -172 499 -221 708 -124 50 23 96 70 127 129 l23 45 3 2385 c3 2677 9 2468
-69 2549 -22 23 -51 48 -64 57 -69 45 -243 56 -395 24z m123 -1550 c55 -48 62
-77 49 -189 -19 -156 -65 -266 -170 -404 -39 -52 -154 -154 -192 -171 -8 -3
-31 -16 -50 -27 -104 -63 -318 -111 -398 -90 -70 19 -116 95 -99 163 4 13 23
40 42 60 33 33 42 36 113 43 151 13 247 57 346 158 83 85 145 227 146 339 0
51 15 84 52 119 46 42 113 41 161 -1z m104 -1815 c62 -41 77 -121 48 -260 -74
-350 -374 -615 -715 -632 -84 -4 -99 -2 -128 16 -56 36 -77 113 -47 171 27 53
71 74 165 81 47 3 94 11 105 16 11 6 46 22 79 37 63 29 161 115 205 181 45 66
61 118 82 265 11 81 27 106 83 135 36 18 86 14 123 -10z"/>
<path d="M5650 6899 c-130 -15 -169 -21 -235 -36 -38 -8 -86 -21 -105 -28 -19
-7 -60 -20 -90 -30 -58 -18 -245 -107 -318 -151 -63 -38 -230 -208 -284 -290
-81 -123 -146 -289 -167 -431 -13 -83 -16 -3773 -3 -3773 4 0 35 15 70 33 l64
32 -1 1502 c-1 1660 -5 1554 62 1601 66 45 171 16 198 -55 6 -15 9 -581 9
-1474 0 -1012 3 -1449 10 -1449 9 0 249 120 300 150 8 5 22 11 30 14 8 3 60
32 115 65 55 33 129 77 165 97 36 21 76 45 90 55 14 9 66 43 115 75 180 116
455 315 579 418 278 232 421 367 540 506 82 97 177 224 204 272 10 18 29 51
43 73 24 37 96 183 124 250 7 17 20 47 29 68 9 21 16 46 16 55 0 10 4 22 9 28
8 8 21 58 62 229 26 112 39 261 39 451 0 256 -25 459 -82 659 -11 39 -23 84
-28 100 -16 57 -82 220 -108 267 -168 299 -432 523 -732 621 -132 43 -280 77
-338 77 -23 0 -63 4 -89 10 -60 12 -220 17 -293 9z m-861 -1068 c62 -44 80
-102 50 -161 -41 -83 -138 -107 -203 -50 -50 44 -63 90 -42 145 32 83 127 116
195 66z"/>
</g>
</svg>
