<?xml version="1.0" standalone="no"?>
<!DOCTYPE svg PUBLIC "-//W3C//DTD SVG 20010904//EN"
 "http://www.w3.org/TR/2001/REC-SVG-20010904/DTD/svg10.dtd">
<svg version="1.0" xmlns="http://www.w3.org/2000/svg"
 width="900.000000pt" height="900.000000pt" viewBox="0 0 900.000000 900.000000"
 preserveAspectRatio="xMidYMid meet">

<g transform="translate(0.000000,900.000000) scale(0.100000,-0.100000)"
fill="#000000" stroke="none">
<path d="M0 4500 l0 -4500 4500 0 4500 0 0 4500 0 4500 -4500 0 -4500 0 0
-4500z m4695 2401 c257 -53 488 -208 634 -425 163 -242 214 -543 141 -830 -27
-105 -104 -262 -174 -353 l-55 -73 399 0 c220 0 400 1 400 3 0 24 223 1104
234 1137 40 108 140 217 250 269 138 66 284 65 424 -4 168 -84 272 -248 272
-432 0 -76 -134 -1150 -155 -1239 -71 -307 -294 -551 -599 -654 -120 -40 -205
-50 -439 -50 l-202 0 0 -1028 0 -1028 -27 -41 c-52 -79 50 -73 -1308 -73
-1358 0 -1256 -6 -1308 73 l-27 41 0 1028 0 1028 -202 0 c-234 0 -319 10 -439
50 -308 104 -531 350 -603 665 -18 80 -151 1160 -151 1228 0 184 104 348 272
432 140 69 286 70 424 4 110 -52 210 -161 250 -269 11 -33 234 -1113 234
-1137 0 -2 180 -3 400 -3 l399 0 -55 73 c-259 340 -276 812 -43 1168 147 224
382 385 638 439 117 25 298 25 416 1z"/>
<path d="M4375 6590 c-349 -64 -595 -376 -572 -727 24 -362 324 -643 687 -643
363 0 663 281 687 643 25 386 -271 716 -657 732 -52 2 -117 0 -145 -5z"/>
<path d="M2175 6335 c-46 -25 -63 -44 -81 -90 -15 -40 -14 -53 11 -251 14
-115 48 -380 75 -589 26 -209 56 -402 65 -430 58 -170 213 -319 390 -376 27
-8 149 -14 386 -18 l346 -6 36 -25 c21 -14 46 -43 57 -66 20 -39 20 -63 20
-1062 l0 -1022 1010 0 1010 0 0 1023 0 1024 23 43 c16 30 37 51 67 67 42 23
49 23 354 23 242 0 325 4 375 15 186 44 354 198 416 380 9 28 39 221 65 430
27 209 61 474 75 589 26 200 26 210 10 252 -10 26 -31 55 -53 72 -30 23 -45
27 -98 27 -67 0 -98 -15 -137 -67 -15 -20 -51 -182 -138 -618 -65 -325 -124
-601 -130 -613 -26 -50 -71 -95 -121 -123 l-53 -29 -1665 0 -1665 0 -53 29
c-50 28 -95 73 -121 123 -6 12 -65 288 -130 613 -123 615 -124 619 -184 664
-36 26 -122 32 -162 11z m2244 -2046 l71 -35 70 35 c60 29 84 35 156 39 185
10 344 -78 422 -233 66 -131 57 -314 -21 -430 -30 -45 -528 -544 -559 -561
-35 -18 -101 -18 -136 0 -32 17 -529 516 -561 563 -56 83 -79 238 -51 343 38
142 145 254 287 301 44 15 80 18 154 16 87 -2 103 -6 168 -38z"/>
<path d="M4174 3991 c-17 -10 -36 -33 -43 -50 -27 -63 -14 -83 179 -276 l180
-180 180 180 c193 193 206 213 179 276 -14 35 -62 69 -97 69 -34 0 -60 -16
-123 -75 -102 -97 -176 -97 -278 0 -86 81 -119 91 -177 56z"/>
</g>
</svg>
