<?xml version="1.0" standalone="no"?>
<!DOCTYPE svg PUBLIC "-//W3C//DTD SVG 20010904//EN"
 "http://www.w3.org/TR/2001/REC-SVG-20010904/DTD/svg10.dtd">
<svg version="1.0" xmlns="http://www.w3.org/2000/svg"
 width="900.000000pt" height="900.000000pt" viewBox="0 0 900.000000 900.000000"
 preserveAspectRatio="xMidYMid meet">

<g transform="translate(0.000000,900.000000) scale(0.100000,-0.100000)"
fill="#000000" stroke="none">
<path d="M0 4500 l0 -4500 4500 0 4500 0 0 4500 0 4500 -4500 0 -4500 0 0
-4500z m3300 2716 c165 -27 227 -44 355 -99 234 -100 462 -284 733 -592 59
-66 109 -120 112 -120 3 0 63 64 132 141 288 321 491 481 748 587 129 53 159
60 410 92 279 36 615 2 831 -85 422 -169 685 -434 844 -851 36 -94 53 -149 59
-195 2 -16 11 -83 21 -149 14 -96 16 -160 12 -320 -4 -110 -11 -222 -17 -250
-6 -27 -13 -68 -15 -90 -24 -189 -158 -503 -325 -760 -167 -258 -236 -338
-597 -702 -95 -96 -173 -175 -173 -177 0 -1 -424 -428 -941 -949 l-941 -947
-47 0 -46 0 -625 628 c-632 636 -939 951 -1005 1031 -29 35 -35 50 -30 70 17
68 98 129 155 116 19 -4 249 -229 783 -766 415 -417 761 -759 768 -759 19 0
1517 1510 2048 2065 297 310 449 514 569 765 178 372 232 744 160 1100 -69
346 -262 642 -507 780 -34 19 -69 41 -76 48 -16 14 -125 64 -125 57 0 -3 -24
5 -52 16 -72 29 -101 37 -188 55 -106 21 -391 29 -524 15 -207 -23 -445 -112
-591 -222 -80 -61 -327 -304 -434 -429 -118 -136 -204 -222 -238 -236 -72 -31
-125 8 -311 226 -225 263 -439 454 -597 534 -267 133 -629 173 -971 106 -56
-11 -131 -31 -168 -45 -36 -14 -66 -23 -66 -20 0 12 -116 -48 -195 -101 -106
-70 -267 -229 -325 -321 -24 -37 -53 -84 -66 -103 -12 -19 -39 -84 -59 -144
-89 -268 -111 -469 -80 -718 21 -172 40 -249 116 -463 38 -109 42 -130 35
-170 -8 -41 -58 -83 -109 -92 -28 -4 -40 0 -71 27 -20 18 -48 51 -61 74 -42
73 -131 341 -140 426 -2 14 -10 70 -19 125 -21 132 -21 383 0 518 9 56 18 116
20 132 22 159 146 434 276 610 63 86 187 206 278 270 172 122 421 230 571 249
19 3 63 9 99 15 106 18 136 19 320 16 102 -1 219 -10 280 -19z m1321 -1712
c16 -15 31 -37 35 -48 3 -12 34 -111 69 -221 35 -110 91 -290 125 -400 113
-371 132 -425 151 -435 10 -6 134 -10 291 -11 150 0 324 -4 387 -8 102 -8 115
-11 138 -34 19 -18 27 -39 31 -76 5 -59 -11 -91 -61 -118 -29 -17 -68 -18
-481 -16 -318 1 -456 5 -477 13 -22 9 -35 28 -57 83 -17 40 -33 83 -37 97 -4
14 -35 115 -70 225 -34 110 -77 248 -96 308 -18 59 -36 104 -40 100 -3 -5 -19
-42 -34 -83 -15 -41 -31 -79 -35 -85 -4 -5 -29 -71 -55 -145 -26 -74 -66 -187
-90 -250 -23 -63 -50 -137 -60 -165 -43 -123 -87 -243 -100 -272 -8 -17 -15
-38 -15 -46 0 -8 -14 -47 -31 -88 -33 -81 -93 -239 -104 -279 -5 -14 -23 -58
-41 -98 -37 -81 -61 -97 -127 -89 -67 9 -73 18 -187 292 -23 55 -50 118 -60
140 -17 41 -32 78 -31 82 0 2 -16 40 -35 85 -19 46 -60 146 -90 223 -30 77
-70 176 -88 220 -32 75 -42 103 -44 115 -1 7 -56 136 -81 193 -12 26 -24 47
-27 47 -3 0 -32 -57 -65 -127 -33 -71 -87 -182 -120 -248 -32 -66 -59 -123
-59 -127 0 -23 -63 -107 -86 -112 -14 -4 -247 -6 -517 -6 l-492 0 -18 23 c-30
37 -58 104 -51 124 4 10 23 37 41 61 l35 42 435 0 435 -1 100 223 c54 123 142
310 194 416 88 181 97 194 132 209 32 13 42 14 77 2 55 -19 76 -59 227 -434
33 -82 80 -197 105 -255 25 -58 47 -116 49 -129 3 -13 12 -37 20 -53 8 -15 51
-119 95 -231 105 -264 103 -257 109 -257 3 0 22 44 42 98 21 53 43 111 49 127
7 17 14 37 15 45 2 8 17 51 34 95 46 118 244 667 292 810 12 33 24 65 28 70 5
6 20 48 34 95 14 47 43 128 64 180 31 76 45 100 73 118 46 32 108 26 150 -14z"/>
</g>
</svg>
