<?xml version="1.0" standalone="no"?>
<!DOCTYPE svg PUBLIC "-//W3C//DTD SVG 20010904//EN"
 "http://www.w3.org/TR/2001/REC-SVG-20010904/DTD/svg10.dtd">
<svg version="1.0" xmlns="http://www.w3.org/2000/svg"
 width="900.000000pt" height="900.000000pt" viewBox="0 0 900.000000 900.000000"
 preserveAspectRatio="xMidYMid meet">

<g transform="translate(0.000000,900.000000) scale(0.100000,-0.100000)"
fill="#000000" stroke="none">
<path fill="#e31c25" d="M0 4500 l0 -4500 4500 0 4500 0 0 4500 0 4500 -4500 0 -4500 0 0
-4500z m4578 2750 c18 -11 41 -34 52 -52 19 -31 20 -51 20 -393 0 -342 -1
-362 -20 -393 -58 -95 -192 -95 -250 0 -19 31 -20 51 -20 393 0 342 1 362 20
393 27 43 76 72 125 72 22 0 54 -9 73 -20z m-1975 -551 c31 -16 505 -489 523
-521 61 -116 -78 -255 -194 -194 -32 18 -505 492 -521 523 -30 58 -1 145 61
183 36 22 97 26 131 9z m3895 -9 c62 -38 91 -125 61 -183 -16 -31 -489 -505
-521 -523 -38 -20 -97 -17 -136 6 -64 39 -91 125 -58 188 16 30 490 504 521
521 32 17 97 13 133 -9z m-1288 -1360 l0 -650 650 0 650 0 0 -710 0 -710 -650
0 -650 0 0 -650 0 -650 -710 0 -710 0 0 650 0 650 -650 0 -650 0 0 710 0 710
650 0 650 0 0 650 0 650 710 0 710 0 0 -650z"/>
</g>
</svg>
